<?xml version="1.0" encoding="iso-8859-1"?>
<!-- Generator: Adobe Illustrator 17.1.0, SVG Export Plug-In . SVG Version: 6.00 Build 0)  -->
<!DOCTYPE svg PUBLIC "-//W3C//DTD SVG 1.1//EN" "http://www.w3.org/Graphics/SVG/1.1/DTD/svg11.dtd">
<svg version="1.1" id="Capa_1" xmlns="http://www.w3.org/2000/svg" xmlns:xlink="http://www.w3.org/1999/xlink" x="0px" y="0px"
	 viewBox="0 0 400.688 400.688" style="enable-background:new 0 0 400.688 400.688;" xml:space="preserve">
<g>
	<path d="M387.886,206.794c1.412,1.06,3.102,1.601,4.803,1.601c1.219,0,2.444-0.278,3.576-0.844c2.71-1.354,4.423-4.125,4.423-7.156
		v-32.134c0-2.518-1.185-4.888-3.198-6.399l-37.15-27.879c0.004-0.102,0.015-0.203,0.015-0.306v-68.75c0-4.418-3.582-8-8-8h-55.417
		c-4.418,0-8,3.582-8,8v15.474l-83.448-62.623c-2.846-2.135-6.758-2.135-9.604,0l-192,144.083c-2.014,1.511-3.198,3.881-3.198,6.399
		v32.134c0,3.031,1.713,5.801,4.423,7.156c2.71,1.355,5.954,1.063,8.379-0.757l3.198-2.4v164.117H8c-4.418,0-8,3.582-8,8
		c0,4.418,3.582,8,8,8h384.667c4.418,0,8-3.582,8-8c0-4.418-3.582-8-8-8h-7.979V204.393L387.886,206.794z M304.938,72.927h39.417
		v49.061l-39.417-29.58V72.927z M16.688,172.259l184-138.08l184,138.08v12.131L205.489,49.913c-1.423-1.068-3.112-1.602-4.802-1.602
		s-3.379,0.534-4.802,1.602L16.688,184.39V172.259z M232.04,368.511h-63.413c0.026-0.261,0.04-0.525,0.04-0.792V233.261H232v134.458
		C232,367.986,232.014,368.25,232.04,368.511z M368.688,194.104v174.406H247.96c0.026-0.261,0.04-0.525,0.04-0.792V225.261
		c0-4.418-3.582-8-8-8h-79.333c-4.418,0-8,3.582-8,8v142.458c0,0.267,0.014,0.531,0.04,0.792H32.688V194.104
		c0-0.547-0.056-1.081-0.16-1.598l168.16-126.193l168.16,126.193C368.743,193.023,368.688,193.557,368.688,194.104z"/>
	<path d="M184.827,296.403c-2.1,0-4.16,0.86-5.649,2.34c-1.49,1.49-2.341,3.56-2.341,5.66c0,2.11,0.851,4.17,2.341,5.66
		c1.489,1.49,3.55,2.34,5.649,2.34c2.11,0,4.17-0.85,5.66-2.34c1.49-1.49,2.35-3.55,2.35-5.66c0-2.1-0.859-4.16-2.35-5.66
		C188.997,297.264,186.938,296.403,184.827,296.403z"/>
	<path d="M160.229,152.677c0,22.114,17.99,40.104,40.104,40.104s40.104-17.991,40.104-40.104c0-22.113-17.991-40.104-40.104-40.104
		S160.229,130.563,160.229,152.677z M200.333,176.781c-10.487,0-19.426-6.734-22.733-16.104h45.467
		C219.76,170.047,210.82,176.781,200.333,176.781z M223.067,144.677H177.6c3.307-9.369,12.246-16.104,22.733-16.104
		S219.76,135.308,223.067,144.677z"/>
	<path d="M128.833,312.976v-87.715c0-4.418-3.582-8-8-8H64.708c-4.418,0-8,3.582-8,8v87.72c-4.311,0.123-7.771,3.647-7.771,7.988
		c0,4.418,3.582,8,8,8h7.771h56.125h7.854c4.418,0,8-3.582,8-8C136.688,316.6,133.183,313.055,128.833,312.976z M112.833,233.261v16
		H72.708v-16H112.833z M72.708,312.969v-47.708h40.125v47.708H72.708z"/>
	<path d="M272.729,328.969h7.813h56.125h7.813c4.418,0,8-3.582,8-8c0-4.355-3.482-7.89-7.813-7.991v-87.717c0-4.418-3.582-8-8-8
		h-56.125c-4.418,0-8,3.582-8,8v87.717c-4.331,0.101-7.813,3.636-7.813,7.991C264.729,325.387,268.312,328.969,272.729,328.969z
		 M288.542,312.969v-47.708h40.125v47.708H288.542z M328.667,233.261v16h-40.125v-16H328.667z"/>
</g>
<g>
</g>
<g>
</g>
<g>
</g>
<g>
</g>
<g>
</g>
<g>
</g>
<g>
</g>
<g>
</g>
<g>
</g>
<g>
</g>
<g>
</g>
<g>
</g>
<g>
</g>
<g>
</g>
<g>
</g>
</svg>
